<?xml version="1.0" standalone="no"?>
<!DOCTYPE svg PUBLIC "-//W3C//DTD SVG 20010904//EN"
 "http://www.w3.org/TR/2001/REC-SVG-20010904/DTD/svg10.dtd">
<svg version="1.0" xmlns="http://www.w3.org/2000/svg"
 width="2200.000000pt" height="1700.000000pt" viewBox="0 0 2200.000000 1700.000000"
 preserveAspectRatio="xMidYMid meet">

<g transform="translate(0.000000,1700.000000) scale(0.100000,-0.100000)"
fill="#000000" stroke="none">
<path d="M10210 15360 c-202 -19 -452 -60 -648 -106 -57 -13 -106 -24 -108
-24 -3 0 -3 28 1 63 l5 62 -22 -62 c-13 -34 -27 -66 -33 -71 -5 -5 -55 -21
-110 -37 -327 -90 -640 -206 -840 -309 -336 -174 -459 -264 -661 -486 -103
-113 -170 -202 -301 -398 -278 -415 -406 -839 -364 -1201 56 -479 324 -832
736 -970 155 -52 256 -65 480 -65 230 1 332 12 730 84 666 121 1159 190 1347
190 l48 0 54 -82 c231 -355 378 -808 440 -1353 35 -308 39 -451 37 -1321 -1
-533 2 -925 9 -1030 9 -151 41 -447 56 -530 l6 -32 -94 -6 c-51 -4 -199 -13
-328 -21 -1126 -72 -1836 -202 -2480 -456 -176 -69 -504 -235 -655 -331 -725
-461 -1196 -1073 -1365 -1773 -77 -315 -81 -683 -10 -981 162 -689 635 -1164
1287 -1295 152 -30 377 -30 520 0 279 58 508 186 729 406 249 247 393 482 709
1160 221 474 335 654 564 889 145 148 293 260 436 331 134 66 230 94 355 102
119 7 205 -7 325 -53 80 -32 94 -34 127 -25 75 23 117 112 81 173 -53 90 -334
169 -554 154 -434 -28 -905 -361 -1253 -884 -84 -127 -189 -329 -329 -633
-190 -411 -313 -638 -443 -820 -81 -113 -240 -277 -342 -354 -210 -158 -474
-238 -722 -221 -335 24 -631 164 -869 412 -199 206 -321 442 -388 753 -30 142
-42 430 -24 587 88 748 571 1425 1351 1894 557 334 1230 538 2131 644 307 37
925 86 1224 98 l60 2 37 -145 c139 -541 349 -949 653 -1268 298 -313 652 -501
1093 -582 139 -26 472 -36 634 -20 427 42 854 175 1321 413 522 266 888 628
1019 1008 31 90 32 103 33 240 0 126 -3 154 -23 215 -43 128 -90 203 -187 301
-80 80 -103 97 -205 147 -134 66 -285 108 -458 127 -150 17 -560 8 -992 -20
-184 -12 -870 -52 -1525 -89 l-1190 -67 -7 26 c-11 36 -45 318 -60 490 -9 107
-12 381 -10 1040 3 899 -1 1077 -34 1370 -56 503 -193 964 -389 1309 -36 63
-65 117 -65 119 0 8 635 -7 785 -18 352 -26 566 -56 1237 -174 341 -60 563
-69 764 -31 170 32 336 107 486 220 449 338 649 1023 474 1627 -185 638 -808
1184 -1686 1478 -232 77 -296 77 -334 -4 -20 -42 -20 -67 -2 -111 18 -42 22
-45 218 -109 676 -221 1173 -575 1436 -1021 351 -597 172 -1436 -372 -1740
-154 -86 -327 -120 -556 -111 -157 6 -280 23 -607 85 -581 110 -1055 155
-1633 155 -580 0 -1046 -46 -1720 -170 -542 -100 -714 -124 -902 -124 -354 0
-622 111 -785 325 -251 330 -255 793 -10 1278 135 266 328 529 543 737 l130
125 234 130 c230 127 389 197 594 260 69 21 78 22 73 7 -3 -9 -16 -55 -30
-102 -58 -197 -78 -472 -48 -655 62 -377 329 -778 672 -1007 112 -74 340 -179
474 -218 356 -104 790 -106 1150 -5 347 98 682 274 869 458 199 195 293 388
303 619 12 245 -58 466 -210 671 -269 364 -803 640 -1397 722 -135 19 -559 28
-700 15z m581 -255 c465 -49 862 -209 1171 -470 246 -209 368 -557 283 -811
-75 -225 -259 -403 -579 -560 -156 -75 -262 -115 -412 -154 -375 -97 -820 -75
-1119 56 -250 110 -337 169 -439 296 -161 201 -271 513 -307 871 -13 137 -8
434 11 549 l12 77 127 30 c494 117 896 154 1252 116z m4262 -7486 c326 -42
545 -196 596 -420 72 -309 -209 -725 -689 -1021 -270 -167 -616 -321 -911
-407 -700 -202 -1292 -142 -1774 180 -369 246 -625 606 -801 1124 -38 111
-108 365 -102 371 2 2 132 10 288 19 157 9 758 42 1335 75 1459 83 1580 90
1665 94 103 4 299 -3 393 -15z"/>
<path d="M9695 14779 c-22 -5 -47 -15 -55 -22 -56 -43 -67 -125 -25 -176 37
-43 77 -53 161 -42 183 26 386 -47 548 -199 95 -88 178 -228 211 -355 16 -63
20 -191 6 -213 -13 -21 19 -100 51 -127 35 -30 105 -34 143 -9 13 9 28 13 33
10 6 -3 13 10 17 30 5 27 26 56 83 113 202 204 482 275 759 195 84 -24 85 -24
127 -6 79 35 98 132 39 194 -57 59 -287 107 -453 93 -172 -14 -364 -81 -502
-176 -33 -22 -61 -39 -63 -37 -1 2 -10 28 -20 58 -100 310 -370 566 -691 656
-70 20 -309 28 -369 13z"/>
<path d="M6305 14520 c-384 -49 -930 -229 -1325 -437 -212 -112 -499 -295
-582 -371 -85 -78 -35 -212 78 -212 40 0 57 9 157 79 480 339 1066 584 1630
682 255 44 387 -1 387 -135 0 -61 -37 -157 -306 -799 -577 -1374 -575 -1369
-611 -1537 -23 -110 -23 -272 1 -359 60 -220 220 -375 472 -454 195 -62 435
-71 895 -36 460 35 1103 28 1445 -17 418 -54 650 -218 710 -504 37 -177 -21
-405 -154 -602 -274 -406 -783 -539 -1687 -442 -197 22 -380 22 -468 0 -172
-41 -276 -133 -313 -275 -22 -87 -15 -133 51 -326 62 -183 75 -250 75 -391 0
-370 -193 -739 -491 -936 -99 -66 -175 -101 -284 -131 -69 -19 -106 -22 -260
-22 -166 0 -188 2 -278 27 -204 57 -366 149 -513 290 -89 86 -176 205 -218
300 -33 74 -74 108 -132 108 -60 0 -113 -46 -121 -105 -4 -35 2 -55 44 -137
134 -261 359 -477 627 -604 188 -88 332 -123 542 -131 170 -6 268 4 403 43
445 129 797 531 907 1034 14 65 19 126 18 265 0 209 -16 298 -84 468 -55 136
-61 183 -27 223 59 70 189 84 477 54 286 -31 694 -38 886 -16 560 65 945 307
1144 721 144 298 154 583 30 840 -59 124 -137 212 -257 292 -210 139 -483 207
-937 234 -228 13 -959 7 -1157 -10 -482 -42 -709 -28 -883 52 -209 97 -279
294 -203 567 34 118 48 154 472 1165 208 495 389 933 402 974 50 155 38 294
-33 398 -54 79 -146 140 -246 162 -69 16 -204 21 -283 11z"/>
<path d="M5961 13619 c-13 -5 -79 -62 -146 -127 -340 -328 -748 -516 -1226
-565 -142 -15 -172 -28 -196 -84 -27 -66 13 -154 77 -168 43 -9 246 12 390 41
452 92 933 361 1208 675 44 51 52 66 52 100 0 70 -39 119 -105 132 -17 3 -41
2 -54 -4z"/>
<path d="M4841 12074 c-228 -61 -380 -237 -491 -569 -46 -136 -47 -148 -20
-192 35 -58 110 -79 170 -48 37 19 42 29 85 162 51 154 100 247 165 313 89 91
205 123 290 80 78 -40 105 -107 105 -260 0 -106 -4 -130 -50 -305 -47 -180
-49 -197 -50 -320 0 -102 4 -142 19 -185 67 -194 190 -331 381 -421 233 -110
480 -116 885 -23 398 91 510 106 637 85 190 -33 333 -169 333 -319 0 -102 -55
-168 -166 -198 -95 -25 -247 -15 -459 31 -296 65 -511 60 -671 -16 -118 -56
-207 -161 -239 -284 -40 -157 -2 -286 160 -545 121 -193 139 -238 140 -340 0
-75 -4 -93 -32 -153 -60 -126 -192 -229 -331 -258 -33 -6 -97 -9 -152 -7 -217
11 -438 137 -626 356 -82 96 -211 289 -298 447 -77 139 -110 175 -162 175 -71
0 -134 -59 -134 -125 0 -48 174 -351 308 -539 77 -107 237 -273 334 -347 97
-73 274 -161 383 -189 115 -31 289 -38 391 -15 263 58 456 227 541 474 21 61
27 96 27 176 1 132 -32 235 -122 384 -135 223 -149 248 -170 304 -41 108 -19
194 63 246 105 67 259 69 548 9 185 -38 215 -42 357 -42 133 -1 165 2 225 21
134 42 246 136 302 252 38 80 44 220 14 320 -42 139 -165 283 -303 356 -109
58 -201 78 -358 78 -153 0 -221 -10 -540 -83 -269 -61 -364 -74 -510 -67 -240
10 -421 111 -499 276 -24 51 -26 67 -25 171 1 104 5 133 48 295 74 282 73 449
-2 609 -89 188 -299 285 -501 230z"/>
<path d="M8475 6231 c-548 -235 -963 -731 -1096 -1309 -30 -128 -37 -353 -15
-462 52 -254 213 -440 440 -505 43 -13 85 -16 155 -13 86 3 105 8 173 40 152
72 254 196 503 608 64 107 299 492 521 856 426 696 422 689 390 753 -31 59
-123 85 -176 50 -21 -14 -484 -762 -1046 -1689 -174 -286 -262 -370 -387 -370
-77 0 -140 25 -200 80 -98 89 -137 196 -138 371 0 173 32 318 110 498 174 400
514 731 906 881 83 31 125 76 125 132 -1 52 -17 83 -56 109 -44 29 -88 23
-209 -30z"/>
<path d="M12115 4799 c-566 -51 -1073 -220 -1400 -467 -345 -261 -572 -608
-657 -1006 -26 -122 -30 -359 -9 -476 102 -562 581 -955 1256 -1030 176 -19
456 -7 662 29 174 31 907 121 940 115 43 -6 207 28 393 82 680 196 1174 658
1265 1182 17 97 20 288 5 379 -102 624 -702 1072 -1580 1178 -159 20 -719 29
-875 14z m696 -249 c267 -20 436 -51 634 -116 477 -157 792 -456 870 -824 22
-106 20 -278 -6 -381 -25 -100 -90 -242 -156 -342 -107 -163 -335 -353 -552
-461 -198 -100 -449 -178 -606 -190 l-90 -7 80 55 c210 144 392 350 486 550
67 143 84 221 84 381 0 133 -2 145 -34 237 -126 366 -468 617 -912 669 -511
59 -1203 -191 -1458 -528 -204 -269 -201 -570 7 -794 179 -193 462 -299 798
-299 156 0 254 12 373 46 273 78 467 234 575 465 48 101 66 176 73 294 10 195
-51 359 -176 478 l-70 66 52 -16 c87 -25 210 -91 280 -149 273 -224 321 -536
130 -842 -53 -86 -221 -265 -282 -302 -23 -14 -63 -41 -89 -60 -196 -145 -482
-283 -717 -346 -239 -63 -631 -91 -843 -60 -421 62 -761 289 -903 603 -56 122
-74 220 -73 398 1 139 4 173 27 257 101 380 341 684 719 909 261 155 672 272
1088 308 139 12 535 13 691 1z m-833 -767 c-45 -48 -78 -109 -78 -147 0 -76
91 -141 164 -116 20 6 44 23 54 37 74 108 143 146 262 145 96 0 172 -28 239
-88 72 -64 104 -135 109 -242 16 -309 -206 -545 -578 -613 -98 -18 -300 -15
-398 5 -189 40 -296 91 -393 187 -78 78 -109 145 -109 240 0 185 151 359 440
504 95 48 284 124 310 125 8 0 0 -15 -22 -37z"/>
</g>
</svg>
